#N canvas 824 58 1080 1092 12;
#X floatatom 8 223 5 1 8 0 - - - 0;
#X msg 42 156 2.2;
#X msg 68 181 2;
#X text 2 7 Except;
#X text 12 37 excludes a list of values from being passed.;
#X text 30 59 Inlet 1: Number to be passed Inlet 2: list of values to be ignored;
#X obj 69 308 sel 1 2 3 4 5 6 7 8, f 11;
#X obj 58 362 bng 20 250 50 0 empty empty empty 0 -10 0 12 #fcfcfc #000000 #000000;
#X obj 80 362 bng 20 250 50 0 empty empty empty 0 -10 0 12 #fcfcfc #000000 #000000;
#X obj 102 362 bng 20 250 50 0 empty empty empty 0 -10 0 12 #fcfcfc #000000 #000000;
#X obj 126 362 bng 20 250 50 0 empty empty empty 0 -10 0 12 #fcfcfc #000000 #000000;
#X obj 148 362 bng 20 250 50 0 empty empty empty 0 -10 0 12 #fcfcfc #000000 #000000;
#X obj 170 362 bng 20 250 50 0 empty empty empty 0 -10 0 12 #fcfcfc #000000 #000000;
#X obj 192 362 bng 20 250 50 0 empty empty empty 0 -10 0 12 #fcfcfc #000000 #000000;
#X obj 214 362 bng 20 250 50 0 empty empty empty 0 -10 0 12 #fcfcfc #000000 #000000;
#X obj 256 104 tgl 20 0 empty empty empty 0 -10 0 12 #fcfcfc #000000 #000000 0 1;
#X obj 257 137 metro 33;
#X obj 130 138 *~ 8;
#X obj 130 160 snapshot~;
#X obj 131 115 phasor~ 1;
#X floatatom 67 285 5 0 0 0 - - - 0;
#X floatatom 136 80 5 0.01 20 0 - - - 0;
#X obj 130 187 + 1;
#X msg 190 80 0.3;
#X obj 130 213 int;
#X msg 165 214 2 6 8;
#X msg 215 215 1 3 7;
#X text 278 174 Outlets:, f 30;
#X text 277 191 -left: the number if not in exceptions list -right: the discarded values when any;
#X obj 64 257 except 1 2.2 3;
#X connect 0 0 29 0;
#X connect 1 0 29 0;
#X connect 2 0 29 0;
#X connect 6 0 7 0;
#X connect 6 1 8 0;
#X connect 6 2 9 0;
#X connect 6 3 10 0;
#X connect 6 4 11 0;
#X connect 6 5 12 0;
#X connect 6 6 13 0;
#X connect 6 7 14 0;
#X connect 15 0 16 0;
#X connect 16 0 18 0;
#X connect 17 0 18 0;
#X connect 18 0 22 0;
#X connect 19 0 17 0;
#X connect 20 0 6 0;
#X connect 21 0 19 0;
#X connect 22 0 24 0;
#X connect 23 0 19 0;
#X connect 24 0 29 0;
#X connect 25 0 29 1;
#X connect 26 0 29 1;
#X connect 29 0 20 0;
